<svg xmlns="http://www.w3.org/2000/svg" viewBox="0 0 350 200" width="350" height="200"><defs><linearGradient id="ac" x1="0" y1="0" x2="1" y2="1"><stop offset="0%" stop-color="#7C3AED"/><stop offset="100%" stop-color="#06b6d4"/></linearGradient></defs><style>.t{font:600 18px 'Segoe UI',Ubuntu,'Helvetica Neue',sans-serif;fill:#7C3AED}.l{font:400 13px 'Segoe UI',Ubuntu,'Helvetica Neue',sans-serif;fill:#c9d1d9}.seg{transform-box:fill-box;transform-origin:left;transform:scaleX(0);animation:grow .9s ease-out .2s forwards}@keyframes grow{to{transform:scaleX(1)}}.row{opacity:0;animation:fade .5s ease-out forwards}@keyframes fade{to{opacity:1}}.g0{animation-delay:0.30s}.g1{animation-delay:0.38s}.g2{animation-delay:0.46s}.g3{animation-delay:0.54s}.g4{animation-delay:0.62s}.g5{animation-delay:0.70s}</style><rect width="350" height="200" rx="8" fill="#0d1117"/><text class="t" x="25" y="36">Most Used Languages</text><clipPath id="bar"><rect x="25" y="56" width="300" height="10" rx="5"/></clipPath><rect x="25" y="56" width="300" height="10" rx="5" fill="#21262d"/><rect class="seg" x="25.00" y="56" width="203.44" height="10" fill="#b07219" clip-path="url(#bar)"/><rect class="seg" x="228.44" y="56" width="59.33" height="10" fill="#3178c6" clip-path="url(#bar)"/><rect class="seg" x="287.77" y="56" width="16.34" height="10" fill="#A97BFF" clip-path="url(#bar)"/><rect class="seg" x="304.11" y="56" width="9.58" height="10" fill="#f1e05a" clip-path="url(#bar)"/><rect class="seg" x="313.69" y="56" width="7.33" height="10" fill="#e34c26" clip-path="url(#bar)"/><rect class="seg" x="321.02" y="56" width="3.98" height="10" fill="#3572A5" clip-path="url(#bar)"/><g class="row g0"><circle cx="29" cy="92" r="4" fill="#b07219"/><text class="l" x="41" y="96">Java 67.8%</text></g><g class="row g1"><circle cx="194" cy="92" r="4" fill="#3178c6"/><text class="l" x="206" y="96">TypeScript 19.8%</text></g><g class="row g2"><circle cx="29" cy="118" r="4" fill="#A97BFF"/><text class="l" x="41" y="122">Kotlin 5.4%</text></g><g class="row g3"><circle cx="194" cy="118" r="4" fill="#f1e05a"/><text class="l" x="206" y="122">JavaScript 3.2%</text></g><g class="row g4"><circle cx="29" cy="144" r="4" fill="#e34c26"/><text class="l" x="41" y="148">HTML 2.4%</text></g><g class="row g5"><circle cx="194" cy="144" r="4" fill="#3572A5"/><text class="l" x="206" y="148">Python 1.3%</text></g></svg>